<?xml version="1.0" standalone="no"?>
<!DOCTYPE svg PUBLIC "-//W3C//DTD SVG 20010904//EN"
 "http://www.w3.org/TR/2001/REC-SVG-20010904/DTD/svg10.dtd">
<svg version="1.0" xmlns="http://www.w3.org/2000/svg"
 width="1024.000000pt" height="1024.000000pt" viewBox="0 0 1024.000000 1024.000000"
 preserveAspectRatio="xMidYMid meet">
<metadata>
Created by potrace 1.11, written by Peter Selinger 2001-2013
</metadata>
<g transform="translate(0.000000,1024.000000) scale(0.100000,-0.100000)"
fill="#000000" stroke="none">
<path d="M4789 9536 c-2 -2 -52 -7 -111 -10 -59 -4 -116 -9 -125 -10 -10 -2
-45 -7 -78 -10 -33 -4 -71 -9 -85 -11 -85 -12 -118 -17 -145 -21 -63 -10 -274
-56 -365 -80 -97 -26 -370 -115 -425 -138 -16 -8 -61 -26 -100 -41 -153 -62
-462 -236 -527 -297 -7 -7 -36 -31 -63 -53 -250 -200 -562 -621 -690 -930 -82
-196 -146 -415 -194 -665 -30 -156 -35 -183 -46 -275 -4 -27 -8 -57 -10 -65
-2 -8 -7 -51 -11 -95 -3 -44 -8 -88 -10 -99 -3 -17 -11 -116 -19 -241 -2 -27
-3 -84 -4 -125 -1 -66 -3 -76 -19 -77 -60 -5 -288 -77 -312 -100 -13 -12 -15
-57 -15 -291 1 -256 10 -558 20 -642 2 -19 7 -84 10 -145 7 -112 8 -121 19
-235 11 -109 17 -142 38 -205 19 -57 69 -125 92 -125 43 -1 39 -16 -72 -296
-121 -306 -178 -452 -350 -894 -64 -165 -160 -415 -197 -515 -12 -33 -37 -98
-55 -145 -93 -246 -270 -742 -285 -800 -59 -218 -59 -214 -27 -245 81 -81 415
-256 697 -365 88 -34 169 -66 180 -71 111 -47 612 -194 835 -244 112 -26 396
-86 425 -90 17 -2 41 -7 55 -10 14 -3 39 -7 55 -10 17 -2 41 -6 55 -9 28 -6
273 -43 335 -51 22 -3 60 -8 85 -11 25 -3 56 -7 70 -9 34 -5 115 -14 175 -20
28 -2 73 -7 100 -9 411 -40 670 -51 1210 -51 382 0 683 8 805 20 19 1 85 6
147 10 62 3 122 8 135 10 13 2 59 6 103 10 44 4 91 8 105 10 14 2 59 6 100 10
41 3 86 8 100 10 14 2 50 7 80 10 60 7 523 73 555 79 11 2 40 7 65 11 25 4 54
9 65 11 11 2 34 7 50 9 43 8 185 34 215 40 14 3 39 8 55 11 98 17 463 102 585
134 19 6 69 18 110 29 451 115 1010 315 1275 455 94 51 103 57 145 99 l28 27
-14 63 c-35 150 -307 865 -499 1312 -7 17 -75 179 -150 360 -76 182 -146 348
-156 370 -10 22 -85 198 -167 390 -83 193 -168 392 -191 443 -23 51 -41 94
-41 96 0 2 20 6 44 9 81 11 99 26 112 89 33 163 14 1382 -23 1441 -15 24 -268
120 -374 141 -24 5 -26 10 -28 63 -2 32 -4 74 -6 93 -1 19 -6 76 -9 125 -4 50
-9 106 -11 125 -2 19 -6 58 -9 85 -4 28 -8 70 -11 95 -3 25 -12 92 -21 150 -9
57 -17 118 -20 135 -15 114 -96 515 -129 640 -52 195 -145 381 -279 560 -87
116 -90 119 -213 241 -250 249 -583 457 -928 577 -114 39 -485 138 -570 151
-16 3 -73 12 -125 21 -52 9 -106 18 -120 20 -14 2 -74 9 -135 15 -60 7 -128
14 -150 16 -46 6 -611 15 -616 10z"/>
</g>
</svg>
